<svg width="18" height="18" viewBox="0 0 18 18" fill="none" xmlns="http://www.w3.org/2000/svg">
<g clip-path="url(#clip0_2_263)">
<path fill-rule="evenodd" clip-rule="evenodd" d="M9.01669 0.617371C13.7804 0.617371 17.643 4.5091 17.643 9.3087C17.643 14.1083 13.7804 18 9.01669 18C4.253 18 0.390381 14.1083 0.390381 9.3087C0.390381 4.5091 4.253 0.617371 9.01669 0.617371Z" fill="#FAFBFA"/>
<path d="M17.9975 9.06658C17.9975 4.0612 13.9667 0 8.99875 0C8.85458 0 8.7044 0.00605246 8.56023 0.0121049C3.92269 0.236046 0.138165 4.11567 0 8.79422V9.06658C0 13.5272 3.21985 17.195 7.59307 17.8911V11.887H5.28031V8.97579H7.59307V6.91796C7.59307 4.58171 9.02879 3.29859 11.2214 3.29859C11.9423 3.30464 12.6631 3.36516 13.372 3.47411V6.05851H12.1105C10.873 6.05851 10.4825 6.77875 10.4825 7.51715V8.97579H12.9515L12.561 11.887H10.4825C10.4765 13.8904 10.4705 15.8877 10.4585 17.8911C11.0472 17.8124 14.225 17.3342 16.3455 14.4412C17.9795 12.2017 18.0155 9.84129 17.9975 9.06658Z" fill="#A70000"/>
</g>
<defs>
<clipPath id="clip0_2_263">
<rect width="18" height="18" fill="white"/>
</clipPath>
</defs>
</svg>
