<svg width="18" height="18" viewBox="0 0 18 18" fill="none" xmlns="http://www.w3.org/2000/svg">
<g clip-path="url(#clip0_2_276)">
<path d="M6.00072 9C6.00072 7.34321 7.34345 5.99976 9.00024 5.99976C10.657 5.99976 12.0005 7.34321 12.0005 9C12.0005 10.6568 10.657 12.0002 9.00024 12.0002C7.34345 12.0002 6.00072 10.6568 6.00072 9ZM4.37885 9C4.37885 11.5524 6.44784 13.6214 9.00024 13.6214C11.5526 13.6214 13.6216 11.5524 13.6216 9C13.6216 6.4476 11.5526 4.37861 9.00024 4.37861C6.44784 4.37861 4.37885 6.4476 4.37885 9ZM12.7246 4.19537C12.7245 4.40897 12.7878 4.6178 12.9064 4.79546C13.025 4.97311 13.1936 5.1116 13.3909 5.19342C13.5882 5.27525 13.8053 5.29672 14.0149 5.25513C14.2244 5.21354 14.4169 5.11076 14.568 4.95978C14.7191 4.8088 14.822 4.6164 14.8638 4.40692C14.9055 4.19744 14.8842 3.98028 14.8025 3.7829C14.7209 3.58552 14.5825 3.4168 14.405 3.29805C14.2274 3.17931 14.0186 3.11589 13.805 3.1158H13.8046C13.5183 3.11593 13.2437 3.2297 13.0412 3.43212C12.8387 3.63454 12.7248 3.90905 12.7246 4.19537ZM5.36424 16.3258C4.48678 16.2858 4.00985 16.1397 3.69291 16.0162C3.27272 15.8526 2.97291 15.6578 2.65769 15.343C2.34248 15.0282 2.14736 14.7287 1.98449 14.3085C1.86094 13.9917 1.71478 13.5146 1.67489 12.6372C1.63126 11.6885 1.62255 11.4035 1.62255 9.00007C1.62255 6.59664 1.63198 6.31246 1.67489 5.36299C1.71485 4.48553 1.86209 4.00939 1.98449 3.69166C2.14808 3.27146 2.34291 2.97166 2.65769 2.65644C2.97248 2.34122 3.272 2.1461 3.69291 1.98324C4.00971 1.85969 4.48678 1.71353 5.36424 1.67364C6.31292 1.63001 6.59789 1.6213 9.00024 1.6213C11.4026 1.6213 11.6879 1.63073 12.6373 1.67364C13.5148 1.7136 13.9909 1.86084 14.3087 1.98324C14.7289 2.1461 15.0287 2.34166 15.3439 2.65644C15.6591 2.97122 15.8535 3.27146 16.0171 3.69166C16.1406 4.00846 16.2868 4.48553 16.3267 5.36299C16.3703 6.31246 16.379 6.59664 16.379 9.00007C16.379 11.4035 16.3703 11.6877 16.3267 12.6372C16.2867 13.5146 16.1398 13.9915 16.0171 14.3085C15.8535 14.7287 15.6587 15.0285 15.3439 15.343C15.0291 15.6575 14.7289 15.8526 14.3087 16.0162C13.9919 16.1397 13.5148 16.2859 12.6373 16.3258C11.6887 16.3694 11.4037 16.3781 9.00024 16.3781C6.59681 16.3781 6.31263 16.3694 5.36424 16.3258ZM5.28972 0.054504C4.33162 0.098136 3.67692 0.250056 3.10517 0.472536C2.51304 0.702288 2.01178 1.01052 1.51088 1.51063C1.00997 2.01074 0.702532 2.5128 0.47278 3.10493C0.2503 3.67704 0.0983801 4.33138 0.0547481 5.28948C0.0103961 6.2491 0.000244141 6.55589 0.000244141 9C0.000244141 11.4441 0.0103961 11.7509 0.0547481 12.7105C0.0983801 13.6687 0.2503 14.323 0.47278 14.8951C0.702532 15.4868 1.01004 15.9895 1.51088 16.4894C2.01171 16.9893 2.51304 17.2971 3.10517 17.5275C3.678 17.7499 4.33162 17.9019 5.28972 17.9455C6.24984 17.9891 6.55613 18 9.00024 18C11.4444 18 11.7511 17.9898 12.7108 17.9455C13.6689 17.9019 14.3232 17.7499 14.8953 17.5275C15.4871 17.2971 15.9887 16.9895 16.4896 16.4894C16.9905 15.9893 17.2973 15.4868 17.5277 14.8951C17.7502 14.323 17.9028 13.6686 17.9457 12.7105C17.9894 11.7502 17.9995 11.4441 17.9995 9C17.9995 6.55589 17.9894 6.2491 17.9457 5.28948C17.9021 4.3313 17.7502 3.67668 17.5277 3.10493C17.2973 2.51316 16.9897 2.01154 16.4896 1.51063C15.9895 1.00973 15.4871 0.702288 14.896 0.472536C14.3232 0.250056 13.6689 0.097416 12.7115 0.054504C11.7519 0.010872 11.4451 0 9.00096 0C6.55685 0 6.24984 0.010152 5.28972 0.054504Z" fill="#A70000"/>
</g>
<defs>
<clipPath id="clip0_2_276">
<rect width="18" height="18" fill="white"/>
</clipPath>
</defs>
</svg>
