<svg width="20" height="15" viewBox="0 0 20 15" fill="none" xmlns="http://www.w3.org/2000/svg">
<g clip-path="url(#clip0_7_68)">
<mask id="mask0_7_68" style="mask-type:luminance" maskUnits="userSpaceOnUse" x="0" y="0" width="20" height="15">
<path d="M19.3581 0H0.000976562V14.364H19.3581V0Z" fill="white"/>
</mask>
<g mask="url(#mask0_7_68)">
<path fill-rule="evenodd" clip-rule="evenodd" d="M6.47928 0.292877C6.86991 -0.0976257 7.50296 -0.0976257 7.89359 0.292877C8.28409 0.683502 8.28409 1.31656 7.89359 1.70718L3.27225 6.3284H19.3581V8.3284H3.56497L7.89347 12.6569C8.28397 13.0474 8.28397 13.6806 7.89347 14.0711C7.50296 14.4616 6.86978 14.4616 6.47916 14.0711L0.365996 7.95804C0.341216 7.93753 0.317168 7.91568 0.293975 7.89249C0.156279 7.75479 0.0671677 7.58694 0.0265183 7.41031C0.00955045 7.33633 0.00100553 7.26089 0.00100553 7.18546C-0.000947597 6.92703 0.0958542 6.66788 0.292998 6.47073C0.309478 6.45425 0.326445 6.43851 0.343779 6.42337C0.354277 6.41422 0.364898 6.4053 0.37564 6.39664L6.47928 0.292877Z" fill="white"/>
</g>
</g>
<defs>
<clipPath id="clip0_7_68">
<rect width="20" height="15" fill="white" transform="translate(0.000976562)"/>
</clipPath>
</defs>
</svg>
