<svg width="18" height="18" viewBox="0 0 18 18" fill="none" xmlns="http://www.w3.org/2000/svg">
<g clip-path="url(#clip0_2_238)">
<path d="M1 5.93457C1.49429 6.25074 1.96187 6.55355 2.42499 6.85636C4.47342 8.18339 6.5263 9.51041 8.57028 10.8463C8.87309 11.0423 9.12246 11.0467 9.42527 10.8508C11.8789 9.24768 14.3415 7.65792 16.8041 6.06371C16.8575 6.02809 16.9154 5.99246 16.9911 5.94793C16.9955 6.01027 17 6.05926 17 6.10379C17 8.68213 17 11.256 17 13.8344C17 14.9566 16.1316 15.8294 15.0184 15.8294C11.0061 15.8338 6.99833 15.8338 2.98608 15.8294C1.86836 15.8249 1 14.9521 1 13.8299C1 11.2516 1 8.67768 1 6.09933C1 6.0548 1 6.01473 1 5.93457Z" fill="#A70000"/>
<path d="M9.0065 3C11.0059 3 13.0054 3 15.0048 3C15.9578 3 16.746 3.63679 16.9464 4.54077C16.9686 4.64765 16.9419 4.70109 16.8573 4.75452C14.2745 6.42444 11.6962 8.0988 9.11337 9.77317C9.03322 9.82661 8.97533 9.83106 8.89072 9.77762C6.30792 8.0988 3.72512 6.42444 1.13787 4.75007C1.05326 4.69663 1.03099 4.64765 1.05326 4.54968C1.24919 3.64125 2.0463 3.00445 3.00817 3C5.00761 3 7.00706 3 9.0065 3Z" fill="#A70000"/>
<path d="M1 5.28571L9 10.4286L17 5.28571" stroke="#680303" stroke-width="0.571429"/>
</g>
<defs>
<clipPath id="clip0_2_238">
<rect width="18" height="18" fill="white"/>
</clipPath>
</defs>
</svg>
