<svg width="27" height="26" viewBox="0 0 27 26" fill="none" xmlns="http://www.w3.org/2000/svg">
<g clip-path="url(#clip0_21_4074)">
<path d="M14.5137 0C14.9969 0.0661536 15.4852 0.12213 15.9684 0.198461C21.0445 1.02792 25.3323 5.12945 26.3903 10.1673C27.143 13.7447 26.5174 17.0727 24.5439 20.1463C24.2947 20.5331 23.9488 20.7213 23.4911 20.6552C23.074 20.5941 22.7586 20.2837 22.662 19.8664C22.5908 19.5458 22.6874 19.271 22.8654 19.0064C23.5724 17.9276 24.076 16.7623 24.3761 15.5105C25.3933 11.2665 23.725 6.7324 20.19 4.16259C18.1046 2.64614 15.7649 1.93881 13.1912 2.04567C8.16086 2.24922 3.85274 6.0098 2.93212 10.9917C1.91485 16.4621 5.11924 21.8205 10.4294 23.4642C13.4964 24.4158 16.4414 24.0545 19.2338 22.4668C19.5085 22.3141 19.778 22.192 20.0985 22.2632C20.5156 22.3548 20.8258 22.6754 20.897 23.0876C20.9682 23.5049 20.78 23.9069 20.3935 24.141C19.3304 24.7872 18.1962 25.2656 16.9958 25.576C10.1038 27.357 3.13048 23.3726 1.19259 16.5231C0.963708 15.7242 0.892499 14.8795 0.744996 14.0551C0.729737 13.9737 0.714478 13.8923 0.699219 13.8108C0.699219 13.2714 0.699219 12.7269 0.699219 12.1875C0.714478 12.1163 0.729737 12.04 0.744996 11.9687C0.831463 11.3835 0.887413 10.7932 1.0044 10.2131C2.05727 5.14471 6.33487 1.0381 11.4365 0.198461C11.9197 0.117041 12.4029 0.0661536 12.8911 0C13.4303 0 13.9694 0 14.5137 0Z" fill="white"/>
<path d="M13.6791 14.0185C12.1735 14.0185 10.668 14.0236 9.16243 14.0185C8.41982 14.0134 7.93153 13.337 8.17059 12.6605C8.3181 12.2536 8.6894 11.9942 9.15225 11.9891C9.8796 11.984 10.6069 11.9891 11.3343 11.9891C13.6333 11.9891 15.9323 11.9891 18.2313 11.9891C18.6688 11.9891 18.9994 12.1824 19.1825 12.5842C19.3656 12.9758 19.2995 13.3471 19.0248 13.6727C18.8112 13.927 18.5213 14.0236 18.1907 14.0236C16.6902 14.0134 15.1846 14.0185 13.6791 14.0185Z" fill="white"/>
<path d="M13.6736 9.9526C12.168 9.9526 10.6625 9.95769 9.15693 9.9526C8.42959 9.94752 7.9413 9.2863 8.17018 8.6149C8.3126 8.19273 8.68899 7.92825 9.16202 7.92316C9.9504 7.91807 10.7337 7.92316 11.5221 7.92316C13.755 7.92316 15.9879 7.92316 18.2157 7.92316C18.9634 7.92316 19.4567 8.58438 19.2279 9.26086C19.0854 9.68812 18.704 9.9526 18.2106 9.9526C16.7 9.9526 15.1842 9.9526 13.6736 9.9526Z" fill="white"/>
<path d="M13.6699 18.0793C12.1643 18.0793 10.6588 18.0844 9.1532 18.0793C8.42586 18.0742 7.94266 17.4079 8.16645 16.7416C8.30887 16.3245 8.68526 16.055 9.15829 16.055C10.0281 16.0499 10.8978 16.055 11.7727 16.055C13.9191 16.055 16.0655 16.055 18.217 16.055C18.9647 16.055 19.4581 16.7162 19.2292 17.3927C19.0868 17.8199 18.7053 18.0793 18.212 18.0793C16.7013 18.0793 15.1856 18.0793 13.6699 18.0793Z" fill="white"/>
</g>
<defs>
<clipPath id="clip0_21_4074">
<rect width="26" height="26" fill="white" transform="translate(0.699219)"/>
</clipPath>
</defs>
</svg>
