<svg width="18" height="18" viewBox="0 0 18 18" fill="none" xmlns="http://www.w3.org/2000/svg">
<g clip-path="url(#clip0_2_273)">
<path d="M17.7351 8.97502C17.7351 13.815 13.8101 17.74 8.97008 17.74C4.13008 17.74 0.205078 13.815 0.205078 8.97502C0.205078 4.13502 4.13008 0.210022 8.97008 0.210022C13.8101 0.210022 17.7351 4.13502 17.7351 8.97502Z" fill="#A70000"/>
<path d="M8.23508 3.14502C5.76508 3.41002 3.30508 5.31002 3.20508 8.03002C3.14008 9.69002 3.83508 10.935 5.49508 11.285C5.68508 10.5 5.72008 10.075 5.72008 10.075C5.72008 10.075 4.99008 9.37502 4.91508 8.93002C4.30508 5.35002 9.25008 2.90502 11.8451 5.40502C13.6351 7.14002 12.4551 12.475 9.56508 11.92C6.79508 11.39 10.9201 7.14502 8.71008 6.31002C6.91508 5.63002 5.96008 8.38502 6.81008 9.75002C6.31008 12.1 5.23508 14.315 5.67008 17.26C7.08508 16.285 7.56008 14.415 7.95008 12.465C8.66008 12.875 9.04008 13.305 9.94508 13.37C13.2851 13.615 15.1501 10.195 14.6951 7.03502C14.2851 4.23502 11.3551 2.81002 8.23508 3.14502Z" fill="white"/>
</g>
<defs>
<clipPath id="clip0_2_273">
<rect width="18" height="18" fill="white"/>
</clipPath>
</defs>
</svg>
