<svg width="18" height="18" viewBox="0 0 18 18" fill="none" xmlns="http://www.w3.org/2000/svg">
<g clip-path="url(#clip0_5_27)">
<mask id="mask0_5_27" style="mask-type:luminance" maskUnits="userSpaceOnUse" x="0" y="0" width="18" height="19">
<path d="M18.0001 0H0V18.0002H18.0001V0Z" fill="white"/>
</mask>
<g mask="url(#mask0_5_27)">
<path fill-rule="evenodd" clip-rule="evenodd" d="M12.3402 7.17008C12.3402 10.0254 10.0254 12.3402 7.17008 12.3402C4.31472 12.3402 2 10.0254 2 7.17008C2 4.31472 4.31472 2 7.17008 2C10.0254 2 12.3402 4.31472 12.3402 7.17008ZM11.5191 12.8711C10.3128 13.7927 8.80536 14.3402 7.17008 14.3402C3.21015 14.3402 0 11.13 0 7.17008C0 3.21015 3.21015 0 7.17008 0C11.13 0 14.3402 3.21015 14.3402 7.17008C14.3402 8.80538 13.7927 10.3128 12.8711 11.5191L17.7201 16.3682C18.0935 16.7415 18.0935 17.3468 17.7201 17.7202C17.3468 18.0935 16.7415 18.0935 16.3681 17.7202L11.5191 12.8711Z" fill="#A70000"/>
</g>
</g>
<defs>
<clipPath id="clip0_5_27">
<rect width="18" height="18" fill="white"/>
</clipPath>
</defs>
</svg>
