<svg width="18" height="18" viewBox="0 0 18 18" fill="none" xmlns="http://www.w3.org/2000/svg">
<g clip-path="url(#clip0_2_269)">
<path d="M5.66082 16.6341C12.4536 16.6341 16.1683 11.0045 16.1683 6.12273C16.1683 5.96285 16.1651 5.80371 16.1579 5.64522C16.8807 5.12202 17.5045 4.47421 18 3.73217C17.3383 4.02646 16.6262 4.22454 15.8792 4.31384C16.6417 3.85649 17.227 3.13294 17.5032 2.27048C16.7783 2.70068 15.9852 3.00395 15.1582 3.16722C14.4843 2.44912 13.5248 2 12.4625 2C10.4231 2 8.76926 3.65446 8.76926 5.69384C8.76926 5.98378 8.80171 6.26571 8.86507 6.53622C5.79574 6.38172 3.07409 4.91165 1.25261 2.67632C0.924545 3.24011 0.751988 3.88087 0.752561 4.53317C0.752561 5.8149 1.40451 6.94638 2.39598 7.60835C1.80951 7.59044 1.23592 7.43197 0.723439 7.14628C0.72289 7.16179 0.72289 7.1769 0.72289 7.19348C0.72289 8.98261 1.99584 10.4764 3.68565 10.8149C3.36828 10.9014 3.04079 10.9451 2.71185 10.9449C2.4743 10.9449 2.24279 10.9215 2.01779 10.8783C2.48795 12.3462 3.85127 13.4144 5.46765 13.4442C4.20366 14.4353 2.61143 15.0256 0.880902 15.0256C0.586518 15.0258 0.292374 15.0088 0 14.9744C1.63441 16.0224 3.57512 16.6339 5.661 16.6339" fill="#A70000"/>
</g>
<defs>
<clipPath id="clip0_2_269">
<rect width="18" height="18" fill="white"/>
</clipPath>
</defs>
</svg>
