<svg width="18" height="18" viewBox="0 0 18 18" fill="none" xmlns="http://www.w3.org/2000/svg">
<g clip-path="url(#clip0_2_286)">
<path d="M11.9903 9.13666C10.3399 8.25469 8.75961 7.44386 7.14429 6.59729V11.6617C8.8441 10.7376 10.6358 9.89139 11.9973 9.13666H11.9903Z" fill="white"/>
<path d="M11.9903 9.13666C10.3399 8.25469 7.14429 6.59729 7.14429 6.59729L11.4048 9.46093C11.4048 9.46093 10.6287 9.89139 11.9903 9.13666Z" fill="white"/>
<path d="M7.45477 15.626C4.02675 15.5629 2.85592 15.5062 2.13625 15.3579C1.64935 15.2594 1.22623 15.0406 0.915993 14.7234C0.676216 14.4833 0.485529 14.1169 0.337588 13.6086C0.210687 13.1852 0.161262 12.8329 0.090798 11.9723C-0.0170684 10.03 -0.0427827 8.44208 0.090798 6.66779C0.201002 5.68798 0.254434 4.52482 0.986457 3.84623C1.3321 3.52865 1.73417 3.32427 2.18568 3.23978C2.89098 3.10586 5.89588 3 9.00664 3C12.1104 3 15.122 3.10586 15.8279 3.23978C16.392 3.34564 16.921 3.66289 17.2315 4.07198C17.8994 5.1226 17.9111 6.42902 17.9789 7.45091C18.007 7.93781 18.007 10.7026 17.9789 11.1895C17.8734 12.8045 17.7886 13.3759 17.5488 13.9683C17.4005 14.3423 17.274 14.5397 17.0549 14.7584C16.7113 15.095 16.2733 15.319 15.7992 15.4003C12.8327 15.6234 10.3137 15.6718 7.45477 15.626ZM11.9975 9.1367C10.3471 8.25473 8.76687 7.43688 7.15154 6.59031V11.655C8.85136 10.731 10.6433 9.88441 12.0045 9.12968L11.9975 9.1367Z" fill="#A70000"/>
</g>
<defs>
<clipPath id="clip0_2_286">
<rect width="18" height="18" fill="white"/>
</clipPath>
</defs>
</svg>
