<svg width="1880" height="558" viewBox="0 0 1880 558" fill="none" xmlns="http://www.w3.org/2000/svg">
<g clip-path="url(#clip0_18_1415)">
<path d="M0 73V0H492C381 82 179.5 120.5 0 73Z" fill="#A70000" fill-opacity="0.2"/>
<path d="M336 301C208.5 284 81.5 269.5 0 325V558H891C914 494 914 449.5 914 393C909 275 776 251.495 664 289C555 325.5 440.5 314.933 336 301Z" fill="#A70000" fill-opacity="0.2"/>
<path d="M1424 301C1330.5 307.5 1251 418 1233 558H1880V288C1795.5 317.5 1736 330.568 1667 323C1589.5 314.5 1507.5 295.195 1424 301Z" fill="#A70000" fill-opacity="0.2"/>
<path d="M1232 74C1200 54.5 1174 35.5 1155 0H1880V319C1804.5 397 1748 420.284 1672 438C1524 472.5 1457.98 380 1413 303C1354 202 1321.5 128.539 1232 74Z" fill="#A70000" fill-opacity="0.15"/>
</g>
<defs>
<clipPath id="clip0_18_1415">
<rect width="1880" height="558" fill="white"/>
</clipPath>
</defs>
</svg>
